<svg width="800" height="450" viewBox="0 0 800 450" fill="none" xmlns="http://www.w3.org/2000/svg">
<g clip-path="url(#clip0_58_677)">
<rect width="800" height="450" fill="white"/>
<g clip-path="url(#clip1_58_677)">
<path d="M331.483 224.523C347.659 223.697 354.619 215.689 354.619 206.186C354.619 196.684 346.261 187.532 335.964 187.532H285.339C282.32 187.532 279.873 189.979 279.873 192.998V256.811C279.873 259.83 282.32 262.278 285.339 262.278H335.964C346.261 262.278 354.619 253.919 354.619 243.623C354.619 233.326 347.659 226.112 331.483 225.286C331.007 225.286 331.007 224.555 331.483 224.555V224.523Z" fill="black"/>
<path d="M496.769 225.254C496.293 225.254 496.293 224.523 496.769 224.523C512.945 223.697 519.905 215.689 519.905 206.186C519.905 196.684 511.547 187.532 501.25 187.532H450.625C447.606 187.532 445.159 189.979 445.159 192.998V256.811C445.159 259.83 447.606 262.278 450.625 262.278H501.25C511.547 262.278 519.905 253.919 519.905 243.623C519.905 233.326 512.945 226.112 496.769 225.286V225.254Z" fill="black"/>
<path d="M417.637 187.5C408.135 187.5 400.127 194.46 399.301 210.636C399.301 211.112 398.57 211.112 398.57 210.636C397.743 194.46 389.735 187.5 380.233 187.5C370.731 187.5 361.578 195.858 361.578 206.155V256.78C361.578 259.799 364.025 262.246 367.044 262.246H430.858C433.877 262.246 436.324 259.799 436.324 256.78V206.155C436.324 195.858 427.966 187.5 417.669 187.5H417.637Z" fill="black"/>
</g>
</g>
<defs>
<clipPath id="clip0_58_677">
<rect width="800" height="450" fill="white"/>
</clipPath>
<clipPath id="clip1_58_677">
<rect width="480" height="75" fill="white" transform="translate(160 187.5)"/>
</clipPath>
</defs>
</svg>
