<svg width="800" height="450" viewBox="0 0 800 450" fill="none" xmlns="http://www.w3.org/2000/svg">
<g clip-path="url(#clip0_58_612)">
<rect width="800" height="450" fill="#090B11"/>
<path d="M201.065 235.712V218.241H242.13V247.318L222.49 267.212C217.559 269.678 211.65 270.911 204.763 270.911C191.67 270.911 180.915 266.83 172.498 258.668C164.166 250.421 160 240.601 160 229.208C160 218.071 165.229 207.103 175.686 196.305L189.715 182.277C193.796 180.152 199.237 179.089 206.039 179.089C212.925 179.089 219.429 180.407 225.551 183.042C231.757 185.678 236.773 189.079 240.599 193.245L227.336 207.783C221.215 201.152 213.733 197.836 204.891 197.836C197.154 197.836 190.862 200.514 186.016 205.87C181.255 211.142 178.875 217.603 178.875 225.255C178.875 232.907 181.298 239.411 186.144 244.767C190.99 250.123 197.409 252.802 205.401 252.802C212.543 252.802 218.622 250.591 223.638 246.17V235.712H201.065Z" fill="white"/>
<path d="M274.081 215.052L283.901 204.723H294.869V223.087H285.559C277.907 223.087 274.081 226.913 274.081 234.565V269.636H255.972V204.723H274.081V215.052Z" fill="white"/>
<path d="M332.87 270.911C323.517 270.911 315.738 267.978 309.532 262.111C303.41 256.16 300.349 248.933 300.349 240.431C300.349 231.334 304.133 222.959 311.7 215.308L321.137 205.615C324.028 204.17 328.109 203.447 333.38 203.447C342.732 203.447 350.469 206.423 356.59 212.374C362.797 218.241 365.9 225.425 365.9 233.927C365.9 238.518 365.05 242.769 363.349 246.68C361.649 250.591 358.631 254.8 354.295 259.306L345.24 268.615C341.669 270.146 337.546 270.911 332.87 270.911ZM334.783 254.459C338.609 254.459 341.839 253.057 344.475 250.251C347.196 247.36 348.556 243.577 348.556 238.901C348.556 233.459 346.813 228.953 343.327 225.382C339.926 221.727 335.93 219.899 331.339 219.899C327.513 219.899 324.24 221.301 321.519 224.107C318.884 226.913 317.566 230.696 317.566 235.457C317.566 240.899 319.266 245.447 322.667 249.103C326.153 252.674 330.192 254.459 334.783 254.459Z" fill="white"/>
<path d="M442.179 254.204L452.254 204.723H471.129L454.422 269.636H429.681L421.264 222.832L412.465 269.636H388.106L371.4 204.723H390.657L400.732 253.184L409.149 204.723H433.38L442.179 254.204Z" fill="white"/>
<path d="M506.649 204.723H519.275V220.664H506.649V269.636H488.54V220.664H475.787V204.723H488.54V185.083H506.649V204.723Z" fill="white"/>
<path d="M548.322 269.636H530.212V180.364H548.322V212.757L555.591 204.978C558.397 203.957 561.5 203.447 564.901 203.447C572.637 203.447 578.759 205.828 583.265 210.589C587.771 215.35 590.024 221.854 590.024 230.101V269.636H571.915V234.055C571.915 229.633 570.852 226.19 568.727 223.725C566.601 221.174 563.753 219.899 560.182 219.899C556.611 219.899 553.72 221.174 551.51 223.725C549.384 226.19 548.322 229.633 548.322 234.055V269.636Z" fill="white"/>
<path d="M637.95 205.488C639.225 207.103 639.905 208.846 639.99 210.716C640.075 212.587 639.608 214.372 638.587 216.073C637.652 217.688 635.952 219.601 633.486 221.812L627.747 227.04C626.217 227.721 624.176 228.061 621.626 228.061C615.504 228.061 610.828 226.53 607.597 223.47C604.452 220.324 602.879 216.625 602.879 212.374H616.525C616.61 213.65 617.077 214.797 617.927 215.818C618.863 216.838 620.095 217.348 621.626 217.348C623.156 217.348 624.389 216.88 625.324 215.945C626.344 214.925 626.855 213.735 626.855 212.374C626.855 211.014 626.302 209.951 625.197 209.186C624.176 208.336 622.774 207.911 620.988 207.911H617.035V198.984H620.606C622.391 198.984 623.751 198.559 624.687 197.708C625.707 196.858 626.217 195.795 626.217 194.52C626.217 193.33 625.792 192.352 624.942 191.587C624.091 190.737 622.901 190.312 621.371 190.312C619.755 190.312 618.523 190.822 617.672 191.842C616.907 192.777 616.482 193.84 616.397 195.03H603.261C603.261 192.735 604.579 190.397 607.215 188.016L615.122 180.874C617.247 180.109 619.67 179.727 622.391 179.727C627.577 179.727 631.701 180.874 634.761 183.17C637.907 185.465 639.48 188.441 639.48 192.097C639.48 194.222 638.842 196.22 637.567 198.091C636.377 199.961 634.719 201.364 632.593 202.299C634.889 202.81 636.674 203.872 637.95 205.488Z" fill="#0BDA7A"/>
</g>
<defs>
<clipPath id="clip0_58_612">
<rect width="800" height="450" fill="white"/>
</clipPath>
</defs>
</svg>
