<svg width="800" height="450" viewBox="0 0 800 450" fill="none" xmlns="http://www.w3.org/2000/svg">
<g clip-path="url(#clip0_56_507)">
<rect width="800" height="450" fill="#0E121A"/>
<g clip-path="url(#clip1_56_507)">
<mask id="mask0_56_507" style="mask-type:luminance" maskUnits="userSpaceOnUse" x="160" y="159" width="479" height="131">
<path d="M638.983 159.396H160V289.97H638.983V159.396Z" fill="white"/>
</mask>
<g mask="url(#mask0_56_507)">
<path d="M225.287 159.396L160 224.683L181.277 245.96L213.544 213.694C219.47 207.768 228.72 207.003 235.062 211.912C238.746 214.755 241.042 219.041 241.338 223.644C241.633 228.258 239.927 232.785 236.669 236.043L218.693 254.019L233.367 268.692L225.297 276.761L202.555 254.019L228.6 227.974C230.426 226.148 230.426 223.196 228.6 221.37C227.725 220.495 226.555 220.014 225.297 219.992C224.051 219.992 222.881 220.484 221.995 221.37L189.347 254.008L225.297 289.959L246.575 268.681L231.902 254.008L243.273 242.637C253.179 232.73 253.179 216.603 243.273 206.686C233.367 196.78 217.239 196.78 207.322 206.686L181.277 232.73L173.208 224.661L225.287 172.605L277.365 224.683L248.018 254.03L254.622 260.634L290.562 224.683L225.287 159.396Z" fill="#D49F32"/>
<path d="M319.067 168.33V207.626H312.441V168.33H319.067ZM316.377 168.33H324.293C327.136 168.33 329.618 168.822 331.739 169.817C333.85 170.812 335.49 172.211 336.649 174.026C337.808 175.841 338.398 178.006 338.398 180.51C338.398 183.014 337.819 185.19 336.649 187.027C335.479 188.864 333.85 190.274 331.739 191.269C329.618 192.264 327.147 192.756 324.293 192.756H316.377V186.917H324.293C326.578 186.917 328.404 186.371 329.793 185.288C331.171 184.206 331.871 182.609 331.871 180.521C331.871 178.433 331.171 176.847 329.793 175.776C328.404 174.704 326.568 174.179 324.293 174.179H316.377V168.341V168.33Z" fill="white"/>
<path d="M351.508 168.33V207.626H344.893V168.33H351.508ZM348.829 168.33H357.03C359.873 168.33 362.344 168.833 364.465 169.849C366.575 170.866 368.215 172.277 369.374 174.092C370.533 175.907 371.124 178.05 371.124 180.521C371.124 182.992 370.544 185.146 369.374 186.972C368.204 188.798 366.575 190.23 364.465 191.236C362.344 192.242 359.873 192.756 357.03 192.756H348.829V187.311H356.745C358.243 187.311 359.555 187.048 360.704 186.524C361.841 185.999 362.737 185.244 363.371 184.249C364.006 183.254 364.323 182.074 364.323 180.685C364.323 179.296 364.006 178.061 363.371 177.088C362.737 176.115 361.841 175.36 360.704 174.846C359.566 174.321 358.243 174.059 356.745 174.059H348.829V168.33ZM360.168 188.874L373.474 207.626H365.493L352.973 188.874H360.168Z" fill="white"/>
<path d="M377.563 179.843C378.569 177.372 380.002 175.229 381.86 173.414C383.708 171.599 385.884 170.188 388.366 169.171C390.859 168.166 393.538 167.652 396.424 167.652C399.311 167.652 402.099 168.155 404.57 169.171C407.041 170.188 409.206 171.599 411.054 173.414C412.902 175.229 414.334 177.372 415.351 179.843C416.357 182.314 416.86 185.026 416.86 187.978C416.86 190.93 416.357 193.609 415.351 196.124C414.334 198.627 412.913 200.803 411.087 202.64C409.25 204.477 407.085 205.909 404.603 206.937C402.11 207.965 399.398 208.479 396.435 208.479C393.472 208.479 390.804 207.965 388.301 206.937C385.797 205.909 383.632 204.477 381.817 202.64C380.002 200.803 378.591 198.638 377.585 196.124C376.579 193.609 376.065 190.897 376.065 187.978C376.065 185.058 376.568 182.303 377.585 179.843H377.563ZM384.78 195.194C385.917 197.304 387.502 198.966 389.525 200.158C391.548 201.361 393.844 201.951 396.424 201.951C399.005 201.951 401.356 201.35 403.357 200.158C405.357 198.966 406.932 197.304 408.069 195.194C409.206 193.084 409.786 190.678 409.786 187.978C409.786 185.277 409.228 182.883 408.102 180.761C406.987 178.651 405.412 176.989 403.411 175.797C401.41 174.606 399.081 174.004 396.424 174.004C393.767 174.004 391.537 174.606 389.525 175.797C387.502 177 385.928 178.651 384.78 180.761C383.643 182.872 383.063 185.277 383.063 187.978C383.063 190.678 383.632 193.073 384.78 195.194Z" fill="white"/>
<path d="M427.914 207.626H421.069L426.46 166.372L442.565 193.04L458.737 166.372L464.127 207.626H457.283L454.527 183.714L442.565 203.974L430.615 183.714L427.914 207.626Z" fill="white"/>
<path d="M477.204 168.33V207.626H470.578V168.33H477.204ZM474.514 168.33H482.431C485.273 168.33 487.755 168.822 489.866 169.817C491.976 170.812 493.616 172.211 494.786 174.026C495.945 175.841 496.524 178.006 496.524 180.51C496.524 183.014 495.945 185.19 494.786 187.027C493.627 188.864 491.987 190.274 489.866 191.269C487.744 192.264 485.273 192.756 482.431 192.756H474.514V186.917H482.431C484.716 186.917 486.542 186.371 487.93 185.288C489.319 184.206 490.008 182.609 490.008 180.521C490.008 178.433 489.308 176.847 487.93 175.776C486.542 174.704 484.716 174.179 482.431 174.179H474.514V168.341V168.33Z" fill="white"/>
<path d="M497.41 168.33H524.811V174.453H514.423V207.626H507.743V174.453H497.41V168.33Z" fill="white"/>
<path d="M553.097 168.33V207.626H546.471V168.33H553.097ZM550.407 168.33H558.323C561.166 168.33 563.648 168.822 565.758 169.817C567.868 170.812 569.509 172.211 570.678 174.026C571.837 175.841 572.417 178.006 572.417 180.51C572.417 183.014 571.837 185.19 570.678 187.027C569.519 188.864 567.879 190.274 565.758 191.269C563.648 192.264 561.166 192.756 558.323 192.756H550.407V186.917H558.323C560.608 186.917 562.434 186.371 563.823 185.288C565.211 184.206 565.9 182.609 565.9 180.521C565.9 178.433 565.201 176.847 563.823 175.776C562.434 174.704 560.608 174.179 558.323 174.179H550.407V168.341V168.33Z" fill="white"/>
<path d="M583.81 193.871L583.701 195.325L578.256 207.615H570.788L589.988 166.132L609.188 207.615H601.72L596.384 195.653L596.22 194.024L589.988 179.428L583.821 193.849L583.81 193.871ZM580.946 191.914H599.194L600.485 197.523H579.721L580.957 191.914H580.946Z" fill="white"/>
<path d="M638.983 168.33L625.622 191.061V207.626H618.887V191.127L605.58 168.341H613.103L622.254 185.179L631.406 168.341H638.983V168.33Z" fill="white"/>
<path d="M326.426 263.017C328.372 266.276 330.931 268.78 334.09 270.551C337.261 272.322 340.695 273.208 344.412 273.208C347.32 273.208 349.934 272.825 352.252 272.071C354.581 271.316 356.68 270.288 358.572 268.976C360.452 267.664 362.092 266.21 363.492 264.581V276.772C360.933 278.861 358.178 280.457 355.215 281.561C352.252 282.666 348.534 283.212 344.073 283.212C339.612 283.212 335.435 282.458 331.565 280.949C327.705 279.44 324.348 277.264 321.505 274.421C318.663 271.579 316.432 268.222 314.847 264.362C313.25 260.503 312.452 256.282 312.452 251.69C312.452 247.098 313.25 242.877 314.847 239.017C316.443 235.158 318.663 231.801 321.505 228.958C324.348 226.115 327.705 223.939 331.565 222.431C335.424 220.922 339.59 220.167 344.073 220.167C348.556 220.167 352.252 220.725 355.215 221.818C358.178 222.912 360.933 224.519 363.492 226.607V238.799C362.092 237.18 360.463 235.704 358.572 234.403C356.68 233.091 354.57 232.063 352.252 231.309C349.934 230.554 347.32 230.172 344.412 230.172C340.695 230.172 337.261 231.057 334.09 232.829C330.931 234.6 328.372 237.093 326.426 240.318C324.479 243.544 323.517 247.327 323.517 251.69C323.517 256.052 324.479 259.759 326.426 263.017Z" fill="white"/>
<path d="M388.487 260.842L388.312 263.105L379.86 282.185H368.281L398.065 217.817L427.86 282.185H416.281L408.004 263.63L407.741 261.104L398.076 238.46L388.498 260.842H388.487ZM384.048 257.791H412.355L414.356 266.495H382.134L384.048 257.791Z" fill="white"/>
<path d="M445.179 221.217V282.185H434.901V221.217H445.179ZM441.003 221.217H453.281C457.699 221.217 461.536 221.982 464.817 223.524C468.097 225.066 470.644 227.242 472.449 230.052C474.242 232.873 475.149 236.218 475.149 240.111C475.149 244.003 474.242 247.371 472.449 250.214C470.644 253.057 468.108 255.254 464.817 256.785C461.526 258.316 457.688 259.092 453.281 259.092H441.003V250.028H453.281C456.824 250.028 459.667 249.186 461.821 247.502C463.975 245.818 465.046 243.347 465.046 240.1C465.046 236.852 463.964 234.392 461.821 232.741C459.678 231.09 456.835 230.259 453.281 230.259H441.003V221.195V221.217Z" fill="white"/>
<path d="M495.617 221.217V282.185H485.252V221.217H495.617Z" fill="white"/>
<path d="M503.107 221.217H545.619V230.708H529.502V282.185H519.137V230.708H503.107V221.217Z" fill="white"/>
<path d="M558.072 260.842L557.897 263.105L549.445 282.185H537.866L567.65 217.817L597.445 282.185H585.866L577.589 263.63L577.327 261.104L567.661 238.46L558.083 260.842H558.072ZM553.622 257.791H581.93L583.931 266.495H551.709L553.622 257.791Z" fill="white"/>
<path d="M614.764 221.217V272.956H638.983V282.185H604.486V221.217H614.764Z" fill="white"/>
</g>
</g>
</g>
<defs>
<clipPath id="clip0_56_507">
<rect width="800" height="450" fill="white"/>
</clipPath>
<clipPath id="clip1_56_507">
<rect width="480" height="131.207" fill="white" transform="translate(160 159.396)"/>
</clipPath>
</defs>
</svg>
