<svg width="800" height="450" viewBox="0 0 800 450" fill="none" xmlns="http://www.w3.org/2000/svg">
<g clip-path="url(#clip0_57_554)">
<rect width="800" height="450" fill="url(#paint0_linear_57_554)"/>
<path d="M126.455 242.409H138.818L149.182 256.045L151.909 259.682L167.364 280.227H155L144.818 266.591L142.273 263.136L126.455 242.409ZM174.636 225.682C173 235.379 169.864 243.758 165.227 250.818C160.591 257.848 154.924 263.273 148.227 267.091C141.53 270.879 134.273 272.773 126.455 272.773C118.394 272.773 111.53 270.803 105.864 266.864C100.227 262.894 96.197 257.288 93.7727 250.045C91.3788 242.773 91 234.167 92.6364 224.227C94.2727 214.53 97.4091 206.167 102.045 199.136C106.682 192.076 112.364 186.652 119.091 182.864C125.818 179.045 133.121 177.136 141 177.136C149 177.136 155.803 179.121 161.409 183.091C167.045 187.03 171.061 192.636 173.455 199.909C175.879 207.152 176.273 215.742 174.636 225.682ZM163.909 224.227C165.242 216.288 165.045 209.606 163.318 204.182C161.591 198.758 158.727 194.652 154.727 191.864C150.727 189.076 145.97 187.682 140.455 187.682C134.697 187.682 129.242 189.152 124.091 192.091C118.939 195 114.53 199.288 110.864 204.955C107.197 210.591 104.697 217.5 103.364 225.682C102.03 233.621 102.227 240.303 103.955 245.727C105.682 251.152 108.545 255.258 112.545 258.045C116.545 260.833 121.303 262.227 126.818 262.227C132.576 262.227 138.03 260.773 143.182 257.864C148.333 254.924 152.742 250.636 156.409 245C160.076 239.333 162.576 232.409 163.909 224.227ZM251.45 178.409H262.723L252.541 240.045C251.48 246.409 249.041 252.091 245.223 257.091C241.405 262.061 236.541 265.985 230.632 268.864C224.723 271.712 218.117 273.136 210.814 273.136C203.511 273.136 197.389 271.712 192.45 268.864C187.511 265.985 183.965 262.061 181.814 257.091C179.662 252.091 179.117 246.409 180.177 240.045L190.359 178.409H201.632L191.541 239.136C190.814 243.682 191.162 247.727 192.586 251.273C194.011 254.788 196.405 257.561 199.768 259.591C203.162 261.591 207.45 262.591 212.632 262.591C217.814 262.591 222.435 261.591 226.495 259.591C230.556 257.561 233.859 254.788 236.405 251.273C238.98 247.727 240.632 243.682 241.359 239.136L251.45 178.409ZM283.707 178.409L268.252 271.5H256.98L272.434 178.409H283.707ZM363.509 207.5H352.418C352.297 204.258 351.63 201.409 350.418 198.955C349.206 196.5 347.57 194.439 345.509 192.773C343.479 191.076 341.145 189.803 338.509 188.955C335.873 188.106 333.055 187.682 330.055 187.682C324.297 187.682 318.842 189.152 313.691 192.091C308.539 195 304.13 199.288 300.464 204.955C296.797 210.591 294.297 217.5 292.964 225.682C291.63 233.621 291.827 240.303 293.555 245.727C295.282 251.152 298.145 255.258 302.145 258.045C306.145 260.833 310.903 262.227 316.418 262.227C319.6 262.227 322.721 261.803 325.782 260.955C328.873 260.106 331.752 258.848 334.418 257.182C337.115 255.485 339.509 253.409 341.6 250.955C343.721 248.47 345.388 245.621 346.6 242.409H357.873C356.206 247.167 353.948 251.424 351.1 255.182C348.282 258.939 345.024 262.136 341.327 264.773C337.63 267.379 333.645 269.364 329.373 270.727C325.1 272.091 320.661 272.773 316.055 272.773C307.994 272.773 301.13 270.803 295.464 266.864C289.827 262.894 285.797 257.288 283.373 250.045C280.979 242.773 280.6 234.167 282.236 224.227C283.873 214.53 287.009 206.167 291.645 199.136C296.282 192.076 301.964 186.652 308.691 182.864C315.418 179.045 322.721 177.136 330.6 177.136C335.327 177.136 339.676 177.818 343.645 179.182C347.615 180.545 351.07 182.545 354.009 185.182C356.948 187.788 359.236 190.97 360.873 194.727C362.539 198.455 363.418 202.712 363.509 207.5ZM358.38 271.5L373.834 178.409H385.107L377.47 224.591H378.561L428.016 178.409H442.743L396.743 220.409L427.289 271.5H413.652L388.561 228.227L374.743 241.318L369.652 271.5H358.38ZM505.416 205.182C505.052 201.515 503.492 198.667 500.734 196.636C497.977 194.606 494.234 193.591 489.507 193.591C486.295 193.591 483.583 194.045 481.37 194.955C479.158 195.833 477.461 197.061 476.28 198.636C475.128 200.212 474.552 202 474.552 204C474.492 205.667 474.84 207.121 475.598 208.364C476.386 209.606 477.461 210.682 478.825 211.591C480.189 212.47 481.764 213.242 483.552 213.909C485.34 214.545 487.249 215.091 489.28 215.545L497.643 217.545C501.704 218.455 505.431 219.667 508.825 221.182C512.219 222.697 515.158 224.561 517.643 226.773C520.128 228.985 522.052 231.591 523.416 234.591C524.81 237.591 525.522 241.03 525.552 244.909C525.522 250.606 524.067 255.545 521.189 259.727C518.34 263.879 514.219 267.106 508.825 269.409C503.461 271.682 496.992 272.818 489.416 272.818C481.901 272.818 475.355 271.667 469.78 269.364C464.234 267.061 459.901 263.652 456.78 259.136C453.689 254.591 452.067 248.97 451.916 242.273H470.961C471.173 245.394 472.067 248 473.643 250.091C475.249 252.152 477.386 253.712 480.052 254.773C482.749 255.803 485.795 256.318 489.189 256.318C492.522 256.318 495.416 255.833 497.87 254.864C500.355 253.894 502.28 252.545 503.643 250.818C505.007 249.091 505.689 247.106 505.689 244.864C505.689 242.773 505.067 241.015 503.825 239.591C502.613 238.167 500.825 236.955 498.461 235.955C496.128 234.955 493.264 234.045 489.87 233.227L479.734 230.682C471.886 228.773 465.689 225.788 461.143 221.727C456.598 217.667 454.34 212.197 454.37 205.318C454.34 199.682 455.84 194.758 458.87 190.545C461.931 186.333 466.128 183.045 471.461 180.682C476.795 178.318 482.855 177.136 489.643 177.136C496.552 177.136 502.583 178.318 507.734 180.682C512.916 183.045 516.946 186.333 519.825 190.545C522.704 194.758 524.189 199.636 524.28 205.182H505.416ZM554.329 178.409L576.829 249.136H577.693L600.238 178.409H622.056L589.965 271.5H564.602L532.465 178.409H554.329ZM688.458 208.5C687.822 206.288 686.928 204.333 685.776 202.636C684.625 200.909 683.216 199.455 681.549 198.273C679.913 197.061 678.034 196.136 675.913 195.5C673.822 194.864 671.504 194.545 668.958 194.545C664.201 194.545 660.019 195.727 656.413 198.091C652.837 200.455 650.049 203.894 648.049 208.409C646.049 212.894 645.049 218.379 645.049 224.864C645.049 231.348 646.034 236.864 648.004 241.409C649.973 245.955 652.761 249.424 656.367 251.818C659.973 254.182 664.231 255.364 669.14 255.364C673.595 255.364 677.398 254.576 680.549 253C683.731 251.394 686.155 249.136 687.822 246.227C689.519 243.318 690.367 239.879 690.367 235.909L694.367 236.5H670.367V221.682H709.322V233.409C709.322 241.591 707.595 248.621 704.14 254.5C700.685 260.348 695.928 264.864 689.867 268.045C683.807 271.197 676.867 272.773 669.049 272.773C660.322 272.773 652.655 270.848 646.049 267C639.443 263.121 634.292 257.621 630.595 250.5C626.928 243.348 625.095 234.864 625.095 225.045C625.095 217.5 626.185 210.773 628.367 204.864C630.579 198.924 633.67 193.894 637.64 189.773C641.61 185.652 646.231 182.515 651.504 180.364C656.776 178.212 662.488 177.136 668.64 177.136C673.913 177.136 678.822 177.909 683.367 179.455C687.913 180.97 691.943 183.121 695.458 185.909C699.004 188.697 701.898 192.015 704.14 195.864C706.382 199.682 707.822 203.894 708.458 208.5H688.458Z" fill="white"/>
</g>
<defs>
<linearGradient id="paint0_linear_57_554" x1="0" y1="225" x2="800" y2="225" gradientUnits="userSpaceOnUse">
<stop stop-color="#E96443"/>
<stop offset="1" stop-color="#904E95"/>
</linearGradient>
<clipPath id="clip0_57_554">
<rect width="800" height="450" fill="white"/>
</clipPath>
</defs>
</svg>
