<svg width="800" height="450" viewBox="0 0 800 450" fill="none" xmlns="http://www.w3.org/2000/svg">
<g clip-path="url(#clip0_58_593)">
<rect width="800" height="450" fill="#0072EE"/>
<path d="M395.406 171.994L407.333 137.4C407.698 136.21 406.827 135 405.606 135H326.55C326.55 135 281.5 135 281.5 179.829C281.5 229.032 326.55 229.032 326.55 229.032H353.766C360.166 229.032 366.09 232.482 369.347 238.106L411.043 313.185C412.48 315.667 420.215 315.588 421.544 313.043L518.285 142.405C518.928 141.174 518.054 139.688 516.687 139.688H467.491C466.806 139.688 466.179 140.082 465.872 140.708L416.712 243.384C415.994 244.847 413.872 244.732 413.293 243.207C408.944 231.765 397.439 201.324 381.253 195.137C376.626 193.368 362.954 192.871 351.338 192.788C339.208 192.702 321.511 193.774 321.511 181.391C321.511 180.553 321.662 179.741 321.918 178.966C323.919 172.914 329.877 173.843 336.133 173.747L393.706 173.29C394.487 173.278 395.172 172.756 395.406 171.994Z" fill="white"/>
<path d="M357.723 258.71H290.676C289.559 258.71 288.707 259.736 288.91 260.857C291.378 274.461 295.621 282.387 305.382 287.625C316.704 293.702 330.054 293.7 342.864 293.698L380.074 293.698C382.539 293.698 384.285 291.23 383.47 288.854C378.66 274.827 374.477 267.2 366.613 261.377C364.052 259.48 360.888 258.71 357.723 258.71Z" fill="white"/>
</g>
<defs>
<clipPath id="clip0_58_593">
<rect width="800" height="450" fill="white"/>
</clipPath>
</defs>
</svg>
