<svg width="800" height="450" viewBox="0 0 800 450" fill="none" xmlns="http://www.w3.org/2000/svg">
<g clip-path="url(#clip0_57_590)">
<rect width="800" height="450" fill="#395542"/>
<g clip-path="url(#clip1_57_590)">
<path d="M196.005 155.162H160.207V189.926H169.312V164.474H196.005V155.162Z" fill="white"/>
<path d="M638.003 190.34V154.541L603.238 154.541V163.646H628.689V190.34H638.003Z" fill="white"/>
<path d="M601.996 294.838H637.796V260.074H628.689V285.526H601.996V294.838Z" fill="white"/>
<path d="M160 259.66L160 295.459H194.764V286.354H169.312V259.66H160Z" fill="white"/>
<path d="M214.996 265.713V198.669H188.556V183.088H260.557V198.669H234.117V265.713H214.996Z" fill="white"/>
<path d="M298.189 265.713V253.319L297.009 250.604V228.414C297.009 224.479 295.789 221.41 293.35 219.207C290.989 217.004 287.33 215.902 282.373 215.902C278.989 215.902 275.645 216.453 272.34 217.555C269.113 218.578 266.359 219.994 264.077 221.804L257.467 208.938C260.929 206.499 265.1 204.61 269.979 203.272C274.858 201.935 279.815 201.266 284.851 201.266C294.53 201.266 302.045 203.548 307.396 208.112C312.747 212.676 315.422 219.797 315.422 229.476V265.713H298.189ZM278.831 266.657C273.874 266.657 269.625 265.831 266.084 264.178C262.543 262.447 259.828 260.126 257.939 257.214C256.051 254.303 255.106 251.037 255.106 247.417C255.106 243.64 256.011 240.335 257.821 237.503C259.71 234.67 262.661 232.466 266.674 230.892C270.687 229.24 275.92 228.414 282.373 228.414H299.251V239.155H284.379C280.051 239.155 277.061 239.863 275.408 241.28C273.835 242.696 273.048 244.467 273.048 246.591C273.048 248.952 273.953 250.84 275.763 252.257C277.651 253.595 280.208 254.263 283.435 254.263C286.504 254.263 289.258 253.555 291.697 252.139C294.137 250.644 295.907 248.48 297.009 245.647L299.842 254.145C298.504 258.237 296.065 261.346 292.524 263.47C288.983 265.595 284.419 266.657 278.831 266.657Z" fill="white"/>
<path d="M355.33 289.556C349.349 289.556 343.565 288.808 337.978 287.313C332.47 285.897 327.867 283.733 324.168 280.821L331.486 267.601C334.162 269.805 337.546 271.536 341.637 272.795C345.808 274.133 349.9 274.802 353.913 274.802C360.444 274.802 365.166 273.346 368.077 270.434C371.067 267.523 372.563 263.195 372.563 257.45V247.889L373.743 231.955L373.507 215.902V202.21H390.977V255.09C390.977 266.893 387.908 275.588 381.769 281.175C375.632 286.762 366.818 289.556 355.33 289.556ZM352.497 262.644C346.595 262.644 341.244 261.385 336.444 258.867C331.722 256.27 327.906 252.69 324.994 248.126C322.162 243.483 320.745 238.093 320.745 231.955C320.745 225.738 322.162 220.348 324.994 215.784C327.906 211.141 331.722 207.561 336.444 205.043C341.244 202.525 346.595 201.266 352.497 201.266C357.848 201.266 362.569 202.367 366.661 204.571C370.753 206.695 373.94 210.04 376.222 214.604C378.504 219.089 379.645 224.873 379.645 231.955C379.645 238.958 378.504 244.742 376.222 249.306C373.94 253.791 370.753 257.136 366.661 259.339C362.569 261.542 357.848 262.644 352.497 262.644ZM356.156 247.535C359.382 247.535 362.254 246.906 364.772 245.647C367.29 244.309 369.257 242.46 370.674 240.099C372.09 237.739 372.799 235.024 372.799 231.955C372.799 228.807 372.09 226.092 370.674 223.81C369.257 221.45 367.29 219.64 364.772 218.381C362.254 217.043 359.382 216.374 356.156 216.374C352.929 216.374 350.057 217.043 347.539 218.381C345.021 219.64 343.014 221.45 341.519 223.81C340.103 226.092 339.395 228.807 339.395 231.955C339.395 235.024 340.103 237.739 341.519 240.099C343.014 242.46 345.021 244.309 347.539 245.647C350.057 246.906 352.929 247.535 356.156 247.535Z" fill="white"/>
<path d="M430.894 289.556C424.914 289.556 419.129 288.808 413.543 287.313C408.034 285.897 403.433 283.733 399.733 280.821L407.052 267.601C409.728 269.805 413.11 271.536 417.203 272.795C421.373 274.133 425.464 274.802 429.478 274.802C436.009 274.802 440.732 273.346 443.642 270.434C446.633 267.523 448.128 263.195 448.128 257.45V247.889L449.308 231.955L449.072 215.902V202.21H466.541V255.09C466.541 266.893 463.472 275.588 457.333 281.175C451.197 286.762 442.383 289.556 430.894 289.556ZM428.062 262.644C422.159 262.644 416.809 261.385 412.009 258.867C407.288 256.27 403.472 252.69 400.559 248.126C397.728 243.483 396.31 238.093 396.31 231.955C396.31 225.738 397.728 220.348 400.559 215.784C403.472 211.141 407.288 207.561 412.009 205.043C416.809 202.525 422.159 201.266 428.062 201.266C433.413 201.266 438.133 202.367 442.227 204.571C446.318 206.695 449.504 210.04 451.787 214.604C454.068 219.089 455.211 224.873 455.211 231.955C455.211 238.958 454.068 244.742 451.787 249.306C449.504 253.791 446.318 257.136 442.227 259.339C438.133 261.542 433.413 262.644 428.062 262.644ZM431.722 247.535C434.947 247.535 437.819 246.906 440.337 245.647C442.856 244.309 444.823 242.46 446.238 240.099C447.656 237.739 448.363 235.024 448.363 231.955C448.363 228.807 447.656 226.092 446.238 223.81C444.823 221.45 442.856 219.64 440.337 218.381C437.819 217.043 434.947 216.374 431.722 216.374C428.494 216.374 425.623 217.043 423.104 218.381C420.587 219.64 418.579 221.45 417.084 223.81C415.668 226.092 414.959 228.807 414.959 231.955C414.959 235.024 415.668 237.739 417.084 240.099C418.579 242.46 420.587 244.309 423.104 245.647C425.623 246.906 428.494 247.535 431.722 247.535Z" fill="white"/>
<path d="M508.113 266.657C500.873 266.657 494.499 265.241 488.992 262.408C483.562 259.575 479.352 255.719 476.362 250.84C473.372 245.883 471.877 240.257 471.877 233.961C471.877 227.587 473.332 221.961 476.243 217.083C479.233 212.125 483.287 208.269 488.402 205.515C493.517 202.682 499.299 201.266 505.752 201.266C511.968 201.266 517.556 202.603 522.513 205.279C527.55 207.876 531.522 211.653 534.435 216.61C537.346 221.489 538.802 227.351 538.802 234.198C538.802 234.906 538.762 235.732 538.685 236.676C538.606 237.542 538.527 238.368 538.447 239.155H486.867V228.414H528.768L521.687 231.601C521.687 228.296 521.018 225.423 519.681 222.984C518.342 220.545 516.493 218.656 514.132 217.319C511.772 215.902 509.017 215.194 505.871 215.194C502.722 215.194 499.928 215.902 497.489 217.319C495.128 218.656 493.279 220.584 491.942 223.102C490.604 225.542 489.936 228.453 489.936 231.837V234.67C489.936 238.132 490.683 241.201 492.178 243.876C493.752 246.473 495.917 248.48 498.671 249.896C501.503 251.234 504.808 251.903 508.586 251.903C511.968 251.903 514.921 251.391 517.437 250.368C520.035 249.345 522.396 247.811 524.521 245.765L534.317 256.388C531.406 259.693 527.746 262.251 523.34 264.06C518.932 265.792 513.857 266.657 508.113 266.657Z" fill="white"/>
<path d="M571.246 266.657C565.266 266.657 559.873 265.32 555.073 262.644C550.273 259.89 546.458 256.073 543.626 251.195C540.872 246.316 539.493 240.572 539.493 233.961C539.493 227.273 540.872 221.489 543.626 216.61C546.458 211.732 550.273 207.955 555.073 205.279C559.873 202.604 565.266 201.266 571.246 201.266C576.596 201.266 581.277 202.446 585.291 204.807C589.305 207.168 592.412 210.748 594.616 215.548C596.82 220.348 597.921 226.486 597.921 233.961C597.921 241.358 596.86 247.496 594.735 252.375C592.61 257.175 589.541 260.756 585.527 263.116C581.592 265.477 576.832 266.657 571.246 266.657ZM574.432 251.549C577.422 251.549 580.137 250.841 582.576 249.424C585.016 248.008 586.943 246.001 588.361 243.404C589.856 240.729 590.602 237.581 590.602 233.961C590.602 230.263 589.856 227.116 588.361 224.519C586.943 221.922 585.016 219.915 582.576 218.499C580.137 217.083 577.422 216.374 574.432 216.374C571.363 216.374 568.608 217.083 566.171 218.499C563.731 219.915 561.763 221.922 560.267 224.519C558.852 227.116 558.143 230.263 558.143 233.961C558.143 237.581 558.852 240.729 560.267 243.404C561.763 246.001 563.731 248.008 566.171 249.424C568.608 250.841 571.363 251.549 574.432 251.549ZM591.076 265.713V252.729L591.43 233.843L590.248 215.076V178.131H608.662V265.713H591.076Z" fill="white"/>
</g>
</g>
<defs>
<clipPath id="clip0_57_590">
<rect width="800" height="450" fill="white"/>
</clipPath>
<clipPath id="clip1_57_590">
<rect width="480" height="140.917" fill="white" transform="translate(160 154.541)"/>
</clipPath>
</defs>
</svg>
