<svg width="800" height="450" viewBox="0 0 800 450" fill="none" xmlns="http://www.w3.org/2000/svg">
<g clip-path="url(#clip0_58_641)">
<rect width="800" height="450" fill="#434834"/>
<g clip-path="url(#clip1_58_641)">
<path d="M384.106 141.424L356.749 240.946H324.08L315.098 202.646C312.808 193.006 312.808 188.025 312.221 183.656H311.605C310.989 188.025 310.695 193.151 308.552 202.646L299.747 240.946H266.314L239.75 141.424H268.78L281.401 203.695C282.458 208.675 283.544 214.093 283.837 215.898H284.454C284.747 214.093 285.833 208.675 286.89 203.84L299.923 141.424H324.08L336.995 203.84C338.052 208.675 339.108 213.947 339.431 215.898H340.048C340.341 213.947 341.427 208.675 342.484 203.695L355.076 141.424H384.106Z" fill="#A9CF38"/>
<path d="M471.958 180.336L445.834 184.268C445.834 175.21 441.284 164.521 428.809 164.521C417.098 164.521 408.145 174.773 408.145 191.2C408.145 210.19 419.857 217.879 432.156 217.879C444.454 217.879 452.82 208.821 455.872 204.597L472.603 222.102C466.821 230.082 453.906 242.169 431.422 242.169C400.103 242.169 379.438 222.422 379.438 191.2C379.438 159.977 399.927 140.23 428.34 140.23C460.246 140.23 471.958 161.637 471.958 180.336Z" fill="#A9CF38"/>
<path d="M521.328 162.861C514.343 162.861 510.527 165.89 510.527 170.258C510.527 185.782 560.221 175.851 560.221 213.248C560.221 228.48 548.832 242.199 519.949 242.199C496.555 242.199 481.644 231.043 476.331 226.529L492.592 206.928C497.612 211.588 509.764 220.209 521.152 220.209C529.048 220.209 531.778 218.083 531.778 214.18C531.778 200.141 482.231 208.588 482.231 172.414C482.29 155.171 497.025 140.23 520.419 140.23C546.718 140.23 557.05 153.948 559.487 167.987L534.566 174.016C534.566 168.598 529.4 162.861 521.358 162.861" fill="#A9CF38"/>
<path d="M283.72 298.79H266.314L263.408 309.1H247L266.05 252.917H283.896L302.77 309.1H286.567L283.749 298.79H283.72ZM280.521 287.373L276.734 273.829C276.206 271.965 275.443 268.994 275.178 267.014H274.826C274.562 268.965 273.711 271.936 273.182 273.917L269.396 287.373H280.462H280.521Z" fill="#A9CF38"/>
<path d="M351.466 309.071H340.224C340.136 308.546 339.783 306.945 339.637 304.119C336.467 307.614 331.653 309.741 324.96 309.741C309.345 309.741 298.983 298.673 298.983 280.965C298.983 263.256 310.578 252.188 326.604 252.188C344.627 252.188 351.231 264.276 351.231 273.974L336.467 276.188C336.467 271.091 333.884 265.877 326.868 265.877C320.264 265.877 315.215 271.673 315.215 280.935C315.215 290.197 320.205 296.838 327.896 296.838C333.561 296.838 336.995 294.974 337.758 290.634H325.929V281.955H351.495V309.012L351.466 309.071Z" fill="#A9CF38"/>
<path d="M372.981 265.849V275.052H392.853V287.052H372.981V296.139H396.639V309.071H356.925V252.917H396.639V265.849H372.981Z" fill="#A9CF38"/>
<path d="M452.703 309.071H438.379L423.879 289.149C421.56 285.916 418.977 282.1 416.834 278.693L416.247 278.955C416.687 280.732 416.687 284.576 416.687 289.178V309.1H401.336V252.946H414.016L430.219 274.994C432.626 278.314 436.148 284.023 437.263 286.062L437.762 285.799C437.322 284.023 437.322 279.596 437.322 274.994V252.946H452.673V309.1L452.703 309.071Z" fill="#A9CF38"/>
<path d="M508.619 274.877L493.854 277.091C493.854 271.994 491.271 265.936 484.256 265.936C477.652 265.936 472.603 271.732 472.603 280.994C472.603 291.712 479.207 296.052 486.164 296.052C493.12 296.052 497.817 290.955 499.549 288.566L508.971 298.44C505.713 302.954 498.433 309.77 485.724 309.77C468.053 309.77 456.4 298.615 456.4 280.994C456.4 263.373 467.965 252.218 484.021 252.218C502.044 252.218 508.648 264.305 508.648 274.848" fill="#A9CF38"/>
<path d="M538.529 288.829V309.071H522.502V288.916L503.717 252.917H521.035L527.991 268.82C528.754 270.596 530.134 274.004 530.574 275.722H530.927C531.367 274.033 532.629 270.625 533.422 268.82L540.29 252.917H557.285L538.588 288.829H538.529Z" fill="#A9CF38"/>
</g>
</g>
<defs>
<clipPath id="clip0_58_641">
<rect width="800" height="450" fill="white"/>
</clipPath>
<clipPath id="clip1_58_641">
<rect width="320.5" height="169.54" fill="white" transform="translate(239.75 140.23)"/>
</clipPath>
</defs>
</svg>
